<?xml version="1.0" encoding="UTF-8"?>
<!DOCTYPE svg PUBLIC "-//W3C//DTD SVG 1.1//EN" "http://www.w3.org/Graphics/SVG/1.1/DTD/svg11.dtd">
<!-- Creator: CorelDRAW -->
<svg xmlns="http://www.w3.org/2000/svg" xml:space="preserve" width="210mm" height="297mm" style="shape-rendering:geometricPrecision; text-rendering:geometricPrecision; image-rendering:optimizeQuality; fill-rule:evenodd; clip-rule:evenodd"
viewBox="0 0 210 297"
 xmlns:xlink="http://www.w3.org/1999/xlink">
 <defs>
  <style type="text/css">
   <![CDATA[
    .str0 {stroke:#373435;stroke-width:0.2}
    .fil0 {fill:#373435}
   ]]>
  </style>
 </defs>
 <g id="Layer_x0020_1">
  <metadata id="CorelCorpID_0Corel-Layer"/>
  <g id="_406534064">
   <path id="_33209208" class="fil0 str0" d="M32.7143 84.4786c26.2805,-5.3025 48.0676,-12.8364 64.9994,-24.1654 3.0247,-1.5349 6.0493,-1.9001 9.074,-0.8482 3.6082,2.1024 5.0424,5.6606 4.1822,7.7629 -0.8614,2.4843 -1.4099,3.3553 -2.0828,4.7614 -0.4293,1.146 -0.5143,1.7061 -0.651,2.3595 -0.2069,0.9885 -0.2917,1.4907 -0.1255,2.5787 0.3163,3.0376 1.9032,4.7528 4.057,5.5122 3.9027,1.5117 6.9015,2.2224 10.0101,2.6899 4.5597,1.6599 7.17,4.4403 7.4965,7.6289 1.4016,-1.059 2.2587,-2.5716 2.249,-4.8066 -0.1067,-2.1108 -0.7457,-4.1804 -2.3813,-6.1737 0.475,-1.6412 -0.0634,-3.3564 -1.2347,-5.1153 -1.9456,-2.131 -4.6102,-3.5575 -7.8494,-4.7625 0.1073,-1.8677 0.26,-3.4682 0.8379,-4.6302 1.9088,-3.6478 4.2206,-4.4366 8.9518,-4.6743 4.8413,0.3329 8.1231,1.6227 9.7896,4.1892 8.1089,12.2968 20.5616,22.2169 36.667,29.8098 -0.5286,0.8957 -1.4483,1.5738 -2.6236,2.1168 -3.663,1.0253 -8.4049,0.7385 -12.4795,-0.3528 -6.9498,-2.2639 -14.5991,-5.8649 -23.9008,-11.0684 5.7732,6.686 15.2743,13.9774 24.1212,18.6531 -1.8777,1.5964 -4.1267,2.3284 -6.6145,2.2932 -6.799,-0.0993 -14.9997,-3.4429 -23.6802,-10.01 3.2517,4.8485 8.2796,9.6887 13.2953,13.3614 -1.8153,0.7369 -3.6307,1.0714 -5.446,0.9261 -3.9548,-0.2095 -9.7154,-4.5677 -15.434,-10.8921 0.8904,2.6682 3.394,6.9232 6.6365,12.0607 -1.3388,0.1794 -2.5752,0.3106 -4.3437,-0.0664 -4.4525,-1.0798 -8.3381,-4.1693 -10.01,-9.569 -1.6624,5.0683 -3.2225,9.7144 -5.1053,12.298 -2.2329,3.4826 -5.0067,6.0789 -7.7068,7.3036 -1.1057,0.5016 -2.0196,0.5974 -3.1512,0.6391 3.7053,-7.2031 6.5843,-14.2136 8.0258,-20.2406 -3.3296,5.0892 -6.7541,10.0363 -10.3189,14.7727 -2.6753,3.3749 -5.3507,6.2382 -8.0257,8.9077 -3.9469,3.1682 -7.9964,4.2256 -11.7079,3.9246 7.8672,-8.8906 14.5562,-17.4359 18.1901,-23.5038 -3.4772,3.4551 -7.0914,6.8197 -10.451,9.2163 -3.3777,2.4775 -6.4118,4.1075 -9.4368,5.2915 -2.4283,0.7436 -4.6713,0.6087 -6.9455,0.2206 9.8006,-7.7285 18.194,-16.0988 23.1733,-23.2391 -2.6772,2.0339 -5.6719,4.4188 -8.8195,6.2176 -5.731,3.1674 -11.8785,3.5794 -17.7271,1.1024 9.2908,-4.286 18.2184,-9.6121 23.0407,-14.1332 -6.3259,3.0755 -12.4312,5.695 -18.7569,7.9473 -7.738,2.7394 -14.3834,2.6161 -19.6519,-1.1122 14.4481,-5.0287 27.0991,-10.8831 37.1963,-17.4405 -12.0388,3.7745 -22.6529,6.817 -28.8618,8.1139 -9.6037,2.1733 -17.3775,2.4427 -22.1589,-0.7938 -2.0358,-1.3877 -3.4517,-3.0856 -4.3115,-5.061z"/>
   <path id="_406536968" class="fil0 str0" d="M121.543 75.5787c1.5222,0.9741 2.7113,2.1423 3.5278,3.5278 0.5677,1.133 0.27,1.2263 -0.7718,0.7937 -1.7113,-0.715 -2.8894,-2.0904 -3.8364,-3.616 -0.4365,-0.985 -0.2244,-1.2714 1.0804,-0.7055z"/>
  </g>
 </g>
</svg>
